<?xml version="1.0" standalone="no"?>
<!DOCTYPE svg PUBLIC "-//W3C//DTD SVG 20010904//EN"
 "http://www.w3.org/TR/2001/REC-SVG-20010904/DTD/svg10.dtd">
<svg version="1.0" xmlns="http://www.w3.org/2000/svg"
 width="1024.000000pt" height="1024.000000pt" viewBox="0 0 1024.000000 1024.000000"
 preserveAspectRatio="xMidYMid meet">
<metadata>
Created by potrace 1.14, written by Peter Selinger 2001-2017
</metadata>
<g transform="translate(0.000000,1024.000000) scale(0.100000,-0.100000)"
fill="#000000" stroke="none">
<path d="M0 5120 l0 -5120 5120 0 5120 0 0 5120 0 5120 -5120 0 -5120 0 0
-5120z m6153 4358 c128 -62 227 -187 245 -313 4 -27 14 -51 22 -56 8 -4 94
-22 190 -40 96 -17 228 -47 292 -65 806 -232 1409 -877 1597 -1710 70 -311
122 -812 137 -1309 l6 -220 -24 -35 c-37 -54 -78 -70 -185 -70 l-93 0 0 -27
c0 -68 -21 -107 -100 -183 -42 -41 -108 -93 -146 -116 l-68 -40 -257 -1944
c-286 -2162 -257 -1990 -354 -2098 -261 -290 -988 -483 -1972 -524 -391 -16
-952 9 -1268 57 -736 112 -1207 310 -1333 561 -30 60 -34 90 -286 1995 -141
1064 -256 1939 -256 1945 0 5 -29 25 -63 44 -34 19 -104 76 -155 125 l-92 90
0 58 0 57 -141 0 c-159 0 -197 11 -231 64 -19 29 -19 44 -14 301 8 389 43 753
112 1169 64 382 172 665 364 951 92 136 137 192 255 314 253 262 531 443 865
564 191 69 295 92 596 132 39 5 42 9 49 42 17 93 111 216 203 266 106 58 75
56 1092 54 l935 -2 78 -37z"/>
<path d="M4195 9241 c-126 -58 -139 -222 -23 -299 l42 -27 883 -3 c632 -2 896
1 926 9 147 39 163 251 24 318 -43 21 -51 21 -928 21 -836 0 -886 -1 -924 -19z"/>
<path d="M3675 8874 c-471 -81 -839 -272 -1154 -599 -218 -226 -372 -485 -470
-787 -85 -262 -164 -858 -187 -1400 l-7 -168 67 0 66 0 0 300 c-1 298 -1 301
23 353 51 109 165 201 354 286 723 325 2485 471 3990 331 945 -88 1594 -259
1838 -483 132 -120 145 -166 145 -525 0 -246 1 -263 18 -260 15 3 17 15 14
118 -10 395 -66 922 -128 1198 -86 385 -276 734 -545 1001 -332 330 -709 511
-1251 598 l-107 17 -23 -30 c-60 -78 -144 -133 -243 -159 -51 -13 -182 -15
-952 -15 -614 0 -909 3 -945 11 -111 23 -254 127 -287 208 -16 38 -24 38 -216
5z"/>
<path d="M4665 6974 c-33 -2 -154 -8 -270 -14 -696 -36 -1380 -145 -1771 -281
-207 -72 -374 -171 -374 -221 0 -37 83 -105 193 -157 534 -255 1798 -407 3080
-371 921 26 1684 130 2169 296 213 73 378 172 378 226 0 55 -193 170 -398 237
-384 127 -1013 226 -1712 272 -158 10 -1170 20 -1295 13z"/>
<path d="M2254 5953 c3 -82 6 -155 6 -163 1 -8 -2 -43 -6 -78 l-7 -63 45 -43
c162 -155 699 -304 1408 -391 489 -59 704 -70 1460 -70 631 0 721 2 975 23
975 78 1697 246 1898 440 l37 36 0 227 0 227 -121 -54 c-305 -137 -762 -239
-1374 -308 -436 -49 -691 -64 -1215 -72 -1274 -20 -2457 133 -2999 387 -57 27
-106 49 -108 49 -3 0 -2 -66 1 -147z"/>
<path d="M2580 5167 c0 -7 108 -835 240 -1842 196 -1488 245 -1838 261 -1871
27 -54 106 -113 234 -175 282 -136 736 -234 1300 -281 194 -16 893 -16 1090 0
325 27 644 76 890 138 336 84 636 236 660 334 6 27 493 3704 491 3707 -1 1
-31 -7 -66 -18 -374 -116 -987 -214 -1597 -255 l-103 -7 0 -818 0 -819 432 0
433 0 -863 -862 -862 -863 -862 863 -863 862 433 0 432 0 0 820 0 820 -22 4
c-13 3 -95 10 -183 16 -498 36 -1073 134 -1427 244 -36 11 -48 12 -48 3z"/>
</g>
</svg>
