<?xml version="1.0" standalone="no"?>
<!DOCTYPE svg PUBLIC "-//W3C//DTD SVG 20010904//EN"
 "http://www.w3.org/TR/2001/REC-SVG-20010904/DTD/svg10.dtd">
<svg version="1.0" xmlns="http://www.w3.org/2000/svg"
 width="1050.000000pt" height="1050.000000pt" viewBox="0 0 1050.000000 1050.000000"
 preserveAspectRatio="xMidYMid meet">
<metadata>
Created by potrace 1.14, written by Peter Selinger 2001-2017
</metadata>
<g transform="translate(0.000000,1050.000000) scale(0.100000,-0.100000)"
fill="#000000" stroke="none">
<path d="M0 5250 l0 -5250 5250 0 5250 0 0 5250 0 5250 -5250 0 -5250 0 0
-5250z m4074 2639 c20 -11 63 -27 98 -35 34 -8 86 -28 115 -45 49 -28 69 -29
42 -2 -19 19 -2 43 29 43 77 0 156 -42 283 -151 90 -78 137 -109 165 -109 14
0 36 -14 56 -36 18 -20 97 -90 176 -156 205 -171 269 -260 281 -389 6 -63 8
-69 41 -91 43 -29 47 -59 30 -196 -22 -177 -73 -312 -180 -477 -75 -115 -171
-226 -360 -420 -92 -93 -192 -201 -223 -238 l-57 -69 39 -47 c56 -67 102 -107
306 -271 99 -79 214 -178 256 -219 l77 -76 -5 165 -6 165 38 100 c69 185 193
397 349 595 119 152 420 480 439 480 10 0 27 -5 37 -10 17 -9 22 -5 41 31 32
63 101 132 229 229 64 48 127 103 142 122 22 28 41 39 115 62 141 43 246 102
543 306 160 110 264 166 384 205 56 18 95 39 134 70 31 26 147 92 272 155 182
92 227 119 270 163 l52 53 39 -19 c38 -18 39 -18 118 2 117 31 140 28 197 -19
52 -43 71 -49 80 -25 7 18 41 20 47 3 2 -7 -4 -29 -14 -49 -18 -36 -18 -37 1
-32 12 3 51 -10 93 -30 39 -19 87 -38 105 -42 42 -9 61 -43 44 -80 -19 -42
-14 -51 36 -70 127 -47 223 -133 264 -234 20 -48 23 -74 23 -176 -1 -113 -3
-124 -34 -197 -83 -195 -243 -364 -415 -437 -26 -12 -143 -48 -259 -81 -546
-154 -841 -292 -1048 -490 -65 -62 -85 -75 -159 -102 -249 -89 -460 -247 -827
-621 -183 -186 -203 -209 -203 -240 0 -58 -28 -130 -78 -201 -47 -67 -48 -70
-41 -118 13 -80 36 -146 92 -258 l52 -104 120 -33 c488 -132 965 -182 1979
-208 l229 -6 121 -126 c168 -174 218 -241 255 -333 26 -67 31 -92 31 -167 l0
-88 -108 -97 c-59 -53 -177 -151 -262 -217 l-154 -120 -251 1 c-232 0 -256 -1
-330 -23 -93 -26 -172 -27 -410 -3 -379 38 -814 130 -1209 254 l-160 51 -93
99 c-95 100 -161 147 -241 171 -88 26 -265 220 -362 396 -25 45 -48 83 -51 83
-3 0 -51 -60 -107 -133 -55 -73 -134 -163 -174 -199 -160 -143 -791 -467
-1113 -571 -115 -37 -295 -83 -404 -102 -84 -15 -100 -21 -138 -55 -24 -21
-74 -49 -113 -63 -79 -30 -320 -79 -394 -81 -46 -1 -51 1 -65 29 -22 42 -34
48 -44 22 -24 -64 -80 -73 -203 -32 -96 32 -167 68 -279 142 -49 32 -95 62
-102 66 -7 5 -28 -17 -56 -60 -53 -82 -109 -141 -142 -149 -13 -3 -56 -1 -95
6 -61 10 -74 10 -95 -4 -13 -9 -32 -16 -41 -16 -8 0 -57 40 -107 88 -62 60
-107 94 -138 106 -39 15 -46 21 -46 45 0 42 -44 123 -79 146 -27 17 -30 25
-30 65 0 36 -8 59 -42 114 -71 112 -85 158 -78 247 10 128 30 189 76 230 l40
36 -14 49 c-8 27 -20 64 -27 81 -12 30 -11 34 13 60 37 40 43 56 78 191 39
158 64 223 105 276 l33 43 -20 32 -20 31 71 143 c76 153 110 258 161 505 36
172 70 294 106 382 19 46 29 94 34 165 7 87 16 121 69 262 74 199 96 299 88
406 -4 43 -9 82 -12 87 -7 11 -86 -12 -121 -34 -38 -26 -74 -89 -93 -163 -16
-65 -19 -69 -61 -90 -29 -15 -62 -23 -97 -23 -29 0 -83 -5 -120 -12 l-68 -11
-75 38 c-276 138 -456 326 -617 645 -35 68 -63 133 -63 143 0 31 56 140 105
202 139 180 413 346 733 444 190 59 497 128 552 124 36 -2 84 6 154 27 155 45
450 116 556 134 133 22 370 38 465 31 61 -5 89 -3 117 9 27 12 93 18 238 25
110 4 203 11 207 14 11 12 31 8 67 -14z"/>
<path d="M3825 6883 c-377 -22 -756 -115 -1045 -255 l-144 -71 44 -39 c25 -21
107 -82 184 -136 140 -98 198 -152 243 -229 14 -24 27 -43 29 -43 15 0 247
117 324 164 110 67 176 117 314 235 91 79 291 288 338 354 l19 27 -128 -2
c-70 -1 -150 -3 -178 -5z"/>
<path d="M3785 4913 c-93 -12 -260 -49 -405 -89 -91 -25 -208 -54 -260 -65
-52 -11 -97 -23 -101 -27 -19 -20 -364 -1040 -356 -1049 8 -7 226 37 333 67
207 60 336 113 750 303 148 68 318 144 377 168 99 40 110 47 123 79 21 49 55
83 154 150 164 113 209 167 210 252 0 36 0 36 -102 86 -130 64 -237 99 -358
117 -87 14 -291 18 -365 8z"/>
</g>
</svg>
