<?xml version="1.0" standalone="no"?>
<!DOCTYPE svg PUBLIC "-//W3C//DTD SVG 20010904//EN"
 "http://www.w3.org/TR/2001/REC-SVG-20010904/DTD/svg10.dtd">
<svg version="1.0" xmlns="http://www.w3.org/2000/svg"
 width="1050.000000pt" height="1050.000000pt" viewBox="0 0 1050.000000 1050.000000"
 preserveAspectRatio="xMidYMid meet">
<metadata>
Created by potrace 1.14, written by Peter Selinger 2001-2017
</metadata>
<g transform="translate(0.000000,1050.000000) scale(0.100000,-0.100000)"
fill="#000000" stroke="none">
<path d="M0 5250 l0 -5250 5250 0 5250 0 0 5250 0 5250 -5250 0 -5250 0 0
-5250z m5623 4405 c962 -85 1833 -453 2540 -1075 1021 -897 1570 -2182 1506
-3525 -29 -618 -168 -1170 -433 -1720 -315 -654 -805 -1236 -1402 -1667 -742
-536 -1649 -828 -2574 -828 -1070 0 -2105 388 -2903 1090 -641 564 -1104 1287
-1337 2090 -304 1051 -211 2170 264 3155 254 528 621 1007 1073 1405 635 558
1431 924 2272 1046 308 44 695 55 994 29z"/>
<path d="M5011 9079 c-1080 -68 -2087 -599 -2762 -1454 -371 -471 -633 -1039
-749 -1624 -53 -272 -64 -397 -64 -746 0 -349 11 -474 64 -746 233 -1177 1018
-2188 2106 -2711 574 -275 1226 -406 1849 -369 442 26 803 103 1202 257 611
236 1200 673 1610 1194 377 480 637 1042 753 1629 53 272 64 397 64 746 0 349
-11 474 -64 746 -103 520 -326 1037 -634 1469 -775 1090 -2043 1694 -3375
1609z m1160 -973 c24 -13 71 -29 104 -36 33 -6 89 -27 124 -46 50 -28 62 -31
56 -17 -25 62 -12 71 73 54 73 -14 139 -55 271 -165 104 -86 152 -116 189
-116 10 0 34 -16 53 -36 18 -20 97 -90 175 -154 235 -197 310 -294 320 -416 8
-92 12 -101 44 -114 46 -19 53 -41 46 -139 -16 -203 -55 -334 -147 -496 -86
-151 -184 -270 -410 -500 -119 -121 -248 -258 -287 -304 l-71 -84 49 -54 c73
-80 136 -135 334 -289 227 -176 358 -301 432 -409 43 -64 66 -87 94 -99 33
-13 39 -21 59 -82 12 -37 48 -129 80 -203 32 -75 64 -154 70 -176 16 -58 14
-127 -5 -153 -15 -22 -15 -25 4 -45 28 -30 42 -70 42 -122 0 -40 -8 -54 -113
-187 -62 -79 -140 -179 -174 -224 -138 -182 -272 -273 -756 -514 -426 -213
-693 -308 -1054 -375 -106 -19 -127 -27 -158 -54 -77 -67 -175 -101 -422 -146
-178 -33 -202 -31 -225 14 -21 43 -48 61 -48 33 0 -11 -9 -31 -21 -46 -17 -22
-28 -26 -73 -26 -102 0 -294 81 -467 196 -41 28 -79 53 -85 57 -6 4 -35 -29
-69 -79 -31 -46 -77 -101 -102 -121 l-44 -36 -95 12 c-89 12 -97 11 -128 -7
l-34 -20 -34 23 c-18 13 -63 54 -99 93 -58 60 -108 94 -171 115 -12 4 -18 17
-18 35 0 60 -69 172 -106 172 -8 0 -13 14 -12 38 1 52 -6 71 -57 152 -23 39
-53 97 -65 130 -22 59 -22 61 -6 176 17 129 43 190 90 213 26 12 28 17 23 55
-3 22 -16 64 -28 93 l-21 52 35 41 c28 33 41 64 66 158 58 216 80 278 113 322
18 23 37 49 43 56 6 9 4 19 -8 32 -28 31 -23 63 25 147 91 159 143 310 198
571 42 201 74 316 117 426 28 73 37 114 43 193 7 89 16 121 73 275 88 235 100
286 101 400 0 157 -6 165 -97 134 -66 -22 -120 -85 -146 -169 -12 -37 -21 -75
-21 -84 0 -35 -75 -63 -189 -72 -58 -4 -121 -12 -138 -17 -29 -9 -43 -5 -123
33 -292 143 -535 393 -692 715 -73 148 -71 139 -37 211 133 281 491 519 983
653 296 82 516 125 545 107 6 -4 74 10 149 31 149 42 471 120 567 138 139 25
311 40 480 40 132 0 191 4 222 15 28 10 106 17 230 21 104 4 204 10 223 14 56
13 65 11 111 -14z"/>
<path d="M5915 7023 c-372 -19 -808 -113 -1095 -238 -92 -40 -240 -117 -240
-125 1 -9 145 -116 265 -197 124 -83 201 -155 250 -233 15 -25 29 -46 30 -48
4 -5 189 79 275 125 243 132 495 337 707 574 60 67 112 127 116 135 7 12 -12
14 -120 12 -70 -1 -155 -3 -188 -5z"/>
<path d="M5895 4890 c-120 -10 -270 -41 -500 -103 -104 -27 -237 -60 -294 -71
l-103 -21 -59 -160 c-57 -154 -339 -975 -339 -987 0 -3 48 3 108 14 301 53
523 130 1027 358 272 123 422 188 541 234 61 24 72 32 83 62 20 55 56 90 181
174 136 92 194 151 210 210 22 81 16 89 -97 146 -237 119 -492 167 -758 144z"/>
</g>
</svg>
