<?xml version="1.0" standalone="no"?>
<!DOCTYPE svg PUBLIC "-//W3C//DTD SVG 20010904//EN"
 "http://www.w3.org/TR/2001/REC-SVG-20010904/DTD/svg10.dtd">
<svg version="1.0" xmlns="http://www.w3.org/2000/svg"
 width="965.000000pt" height="965.000000pt" viewBox="0 0 965.000000 965.000000"
 preserveAspectRatio="xMidYMid meet">
<metadata>
Created by potrace 1.14, written by Peter Selinger 2001-2017
</metadata>
<g transform="translate(0.000000,965.000000) scale(0.100000,-0.100000)"
fill="#000000" stroke="none">
<path d="M0 4825 l0 -4825 4825 0 4825 0 0 4825 0 4825 -4825 0 -4825 0 0
-4825z m2222 3165 c47 -14 68 -43 68 -97 0 -55 -14 -64 -159 -97 -133 -30
-186 -60 -260 -143 -103 -115 -130 -203 -131 -418 0 -113 -6 -125 -59 -125
-47 0 -99 33 -115 73 -36 88 -26 261 22 374 58 135 163 270 261 332 69 44 184
91 249 100 81 12 83 12 124 1z m4983 -4 c92 -25 214 -96 298 -175 87 -83 139
-154 181 -250 48 -108 47 -300 -1 -353 -12 -13 -31 -18 -69 -18 -66 0 -69 6
-77 120 -11 152 -72 286 -176 383 -77 72 -139 96 -337 133 -34 6 -49 47 -35
93 23 78 95 100 216 67z m-1940 -139 c39 -9 86 -23 105 -31 19 -7 55 -22 80
-32 153 -62 344 -211 450 -353 73 -96 145 -250 177 -374 14 -59 25 -109 22
-111 -7 -6 -2907 -12 -2913 -5 -16 15 33 186 68 239 13 19 29 53 36 75 14 44
46 95 68 108 7 5 22 28 32 50 19 46 52 87 67 87 6 0 16 13 23 29 18 45 149
142 295 219 62 33 172 73 265 98 84 23 91 23 620 20 456 -2 545 -5 605 -19z
m1443 -1151 c38 -20 72 -70 72 -107 0 -32 -22 -84 -49 -119 l-20 -25 -453 -6
c-249 -4 -1157 -10 -2018 -14 l-1565 -7 -57 21 c-118 46 -153 159 -72 233 57
51 -80 48 2104 44 1882 -3 2027 -4 2058 -20z m-1711 -496 l1563 0 0 -40 c0
-22 -9 -102 -20 -177 -10 -76 -26 -212 -35 -303 -8 -91 -19 -185 -25 -210 -5
-25 -16 -121 -25 -215 -9 -93 -22 -204 -30 -245 -8 -41 -19 -129 -25 -195 -6
-66 -15 -139 -20 -161 -5 -23 -19 -102 -29 -175 -11 -74 -27 -179 -35 -234 -8
-55 -20 -156 -26 -225 -6 -69 -15 -143 -20 -165 -4 -22 -13 -85 -19 -140 -7
-55 -18 -152 -27 -215 -8 -63 -23 -196 -34 -295 -21 -193 -43 -351 -65 -481
-8 -44 -24 -155 -35 -245 -60 -489 -80 -576 -166 -701 -62 -92 -118 -130 -269
-187 l-70 -26 -924 -2 c-904 -2 -925 -2 -984 18 -186 63 -303 168 -357 322
-31 87 -72 349 -195 1242 -40 295 -73 527 -110 785 -14 96 -37 256 -50 355
-14 99 -36 257 -50 350 -14 94 -34 238 -45 320 -11 83 -29 209 -40 280 -11 72
-27 191 -35 265 -8 74 -26 206 -39 294 -14 87 -29 214 -32 282 l-7 124 284 3
c156 2 317 2 358 0 41 -2 778 -3 1638 -3z m2654 -3926 c5 -3 19 -24 32 -47 19
-36 22 -57 21 -147 0 -117 -15 -165 -78 -261 -59 -89 -69 -102 -110 -139 -22
-19 -44 -40 -50 -45 -23 -21 -113 -74 -167 -98 -70 -31 -144 -47 -214 -47 -47
0 -56 3 -79 31 -32 38 -33 60 -3 94 17 20 42 30 112 46 170 37 251 96 363 264
l47 70 6 135 c4 74 8 136 8 138 6 16 88 21 112 6z m-5928 -119 c8 -160 37
-247 113 -335 101 -116 174 -154 324 -169 44 -5 82 -10 84 -12 2 -2 8 -26 14
-54 20 -92 -26 -118 -167 -96 -192 29 -415 197 -501 376 -55 116 -67 294 -23
353 18 24 77 46 139 51 7 1 13 -39 17 -114z"/>
<path d="M6568 6453 c18 -2 45 -2 60 0 15 2 0 4 -33 4 -33 0 -45 -2 -27 -4z"/>
<path d="M4624 5710 c-12 -4 -31 -21 -43 -36 -21 -27 -22 -35 -19 -221 l3
-194 -85 5 c-274 18 -327 18 -358 2 -61 -32 -75 -76 -44 -135 35 -65 61 -71
290 -71 184 0 204 -2 198 -16 -3 -9 -7 -141 -7 -293 l-1 -276 -87 7 c-157 12
-325 12 -352 -2 -65 -34 -79 -107 -30 -162 l29 -33 224 -5 c205 -5 223 -6 222
-23 -1 -9 -5 -137 -8 -283 l-6 -266 -211 2 -210 1 -29 -30 c-45 -44 -39 -111
14 -153 18 -15 47 -18 234 -18 l213 0 -3 -290 -3 -290 -210 0 c-230 0 -240 -2
-270 -60 -23 -44 -18 -69 19 -106 l34 -34 216 0 216 0 0 -211 0 -211 40 -40
c36 -36 44 -40 76 -35 41 7 69 29 91 70 11 23 13 55 7 166 -3 76 -3 169 1 206
l7 67 31 -6 c18 -3 110 -6 206 -8 l174 -2 39 43 c35 37 39 47 34 74 -8 40 -41
75 -80 85 -17 5 -121 7 -230 4 l-199 -5 8 29 c4 16 7 150 6 297 l-1 269 87 -6
c49 -3 141 -8 205 -11 l117 -6 40 41 c22 23 43 50 46 61 8 25 -40 97 -73 110
-20 8 -309 4 -387 -5 l-30 -4 -2 294 -3 293 205 -6 205 -6 45 45 c25 26 45 55
45 67 0 12 -19 42 -42 67 l-41 45 -186 -6 c-102 -3 -196 -8 -208 -11 l-23 -4
0 296 0 296 208 -3 c114 -2 213 1 220 5 22 14 72 88 72 107 0 24 -57 88 -88
100 -22 9 -132 3 -342 -17 l-65 -6 0 189 c0 212 -5 232 -70 259 -39 16 -51 16
-81 4z"/>
</g>
</svg>
